{
	"asset":{
		"generator":"Khronos glTF Blender I/O v3.6.27",
		"version":"2.0"
	},
	"scene":0,
	"scenes":[
		{
			"name":"Scene",
			"nodes":[
				16
			]
		}
	],
	"nodes":[
		{
			"name":"Bone.002",
			"rotation":[
				0.025865968316793442,
				1.1043349346095965e-08,
				0.13196563720703125,
				0.9909167885780334
			],
			"scale":[
				1,
				0.9999999403953552,
				0.9999999403953552
			],
			"translation":[
				2.95440258923918e-08,
				0.9010277390480042,
				-2.5320332497358322e-09
			]
		},
		{
			"name":"Bone.003",
			"rotation":[
				0.030994700267910957,
				-5.769851441073115e-08,
				0.30349108576774597,
				0.9523300528526306
			],
			"scale":[
				1,
				0.9999998211860657,
				1
			],
			"translation":[
				2.95440258923918e-08,
				0.9010277390480042,
				-2.5320332497358322e-09
			]
		},
		{
			"children":[
				0,
				1
			],
			"name":"Bone.001",
			"rotation":[
				-0.002081850077956915,
				-0.0007449868135154247,
				-0.056800179183483124,
				0.9983831644058228
			],
			"scale":[
				0.9999998211860657,
				0.9999998807907104,
				1
			],
			"translation":[
				-2.7519035938894376e-09,
				1.0050394535064697,
				-3.490185918053612e-10
			]
		},
		{
			"name":"Bone.005",
			"rotation":[
				0.1767365038394928,
				5.678023384803055e-09,
				-0.01563943922519684,
				0.9841339588165283
			],
			"scale":[
				1,
				0.9999999403953552,
				1
			],
			"translation":[
				2.2351741790771484e-08,
				0.8288357257843018,
				-3.818422555923462e-08
			]
		},
		{
			"children":[
				3
			],
			"name":"Bone.004",
			"rotation":[
				0.7850541472434998,
				2.076053640109876e-08,
				-0.013058453798294067,
				0.6192895174026489
			],
			"scale":[
				0.9999998807907104,
				1.0000001192092896,
				1
			],
			"translation":[
				-2.7519035938894376e-09,
				1.0050394535064697,
				-3.490185918053612e-10
			]
		},
		{
			"name":"Bone.007",
			"rotation":[
				-0.12319308519363403,
				-5.103281353058264e-09,
				-0.011525449343025684,
				0.9923158288002014
			],
			"scale":[
				1,
				0.9999999403953552,
				0.9999999403953552
			],
			"translation":[
				1.4901161193847656e-08,
				0.7862885594367981,
				-1.30385160446167e-07
			]
		},
		{
			"children":[
				5
			],
			"name":"Bone.006",
			"rotation":[
				-0.8007298707962036,
				2.558802592034226e-08,
				-0.016544731333851814,
				0.5987971425056458
			],
			"scale":[
				0.9999999403953552,
				1,
				0.9999999403953552
			],
			"translation":[
				-2.7519035938894376e-09,
				1.0050394535064697,
				-3.490185918053612e-10
			]
		},
		{
			"children":[
				2,
				4,
				6
			],
			"name":"Bone",
			"rotation":[
				-0.0011627868516370654,
				3.6221699417637865e-08,
				-0.03482002764940262,
				0.9993929266929626
			],
			"scale":[
				1.0000001192092896,
				0.9999998807907104,
				0.9999999403953552
			],
			"translation":[
				0.04515182226896286,
				-3.4088676326149425e-09,
				0
			]
		},
		{
			"name":"Bone.011",
			"rotation":[
				-0.3173255920410156,
				1.0552682061515384e-09,
				-3.2756936434452655e-06,
				0.9483166933059692
			],
			"translation":[
				-3.748006793813374e-09,
				0.7270525693893433,
				-1.1695326651572913e-10
			]
		},
		{
			"name":"Bone.012",
			"rotation":[
				0.3112890422344208,
				-2.6067517588934663e-10,
				3.214153139197151e-06,
				0.9503152966499329
			],
			"scale":[
				1,
				0.9999999403953552,
				1
			],
			"translation":[
				-3.748006793813374e-09,
				0.7270525693893433,
				-1.1695326651572913e-10
			]
		},
		{
			"children":[
				8,
				9
			],
			"name":"Bone.010",
			"rotation":[
				-4.073224742250688e-15,
				4.420144250616431e-10,
				4.4170472834892394e-10,
				1
			],
			"translation":[
				-4.442957113326429e-11,
				0.38335490226745605,
				-7.710630745005886e-11
			]
		},
		{
			"name":"Bone.013",
			"rotation":[
				-0.6872154474258423,
				1.5252065166393436e-09,
				-7.094147804309614e-06,
				0.7264537215232849
			],
			"translation":[
				-4.442957113326429e-11,
				0.38335490226745605,
				-7.710630745005886e-11
			]
		},
		{
			"name":"Bone.014",
			"rotation":[
				0.6727522015571594,
				4.3587629505736913e-08,
				6.981922069826396e-06,
				0.7398679256439209
			],
			"scale":[
				1,
				0.9999999403953552,
				0.9999999403953552
			],
			"translation":[
				-4.442957113326429e-11,
				0.38335490226745605,
				-7.710630745005886e-11
			]
		},
		{
			"children":[
				10,
				11,
				12
			],
			"name":"Bone.009",
			"rotation":[
				-0.004310224670916796,
				1.689566997593872e-13,
				-4.450414081702547e-08,
				0.999990701675415
			],
			"scale":[
				1,
				0.9999997615814209,
				0.9999999403953552
			],
			"translation":[
				-1.7196910562233825e-09,
				0.76673823595047,
				4.656612873077393e-10
			]
		},
		{
			"children":[
				13
			],
			"name":"Bone.008",
			"rotation":[
				-5.162411980563775e-06,
				0.004310221411287785,
				0.999990701675415,
				1.6617962117493335e-08
			],
			"scale":[
				1,
				1.0000001192092896,
				1
			],
			"translation":[
				0.04515182226896286,
				-3.4088676326149425e-09,
				0
			]
		},
		{
			"mesh":0,
			"name":"\u7acb\u65b9\u4f53.001",
			"skin":0
		},
		{
			"children":[
				15,
				7,
				14
			],
			"name":"\u30a2\u30fc\u30de\u30c1\u30e5\u30a2",
			"rotation":[
				0,
				0,
				-0.7071068286895752,
				0.7071068286895752
			],
			"scale":[
				1.3263494968414307,
				1.3263494968414307,
				1.3263494968414307
			]
		}
	],
	"materials":[
		{
			"doubleSided":true,
			"name":"\u30de\u30c6\u30ea\u30a2\u30eb.001",
			"pbrMetallicRoughness":{
				"baseColorFactor":[
					0.752884566783905,
					0.8000000715255737,
					0.8000000715255737,
					1
				],
				"metallicFactor":0,
				"roughnessFactor":0.5
			}
		},
		{
			"doubleSided":true,
			"name":"\u30de\u30c6\u30ea\u30a2\u30eb",
			"pbrMetallicRoughness":{
				"baseColorFactor":[
					0.021743834018707275,
					0.14215858280658722,
					0.3515465259552002,
					1
				],
				"metallicFactor":0,
				"roughnessFactor":0.5
			}
		}
	],
	"meshes":[
		{
			"name":"\u7acb\u65b9\u4f53.001",
			"primitives":[
				{
					"attributes":{
						"POSITION":0,
						"NORMAL":1,
						"TEXCOORD_0":2,
						"JOINTS_0":3,
						"WEIGHTS_0":4
					},
					"indices":5,
					"material":0
				},
				{
					"attributes":{
						"POSITION":6,
						"NORMAL":7,
						"TEXCOORD_0":8,
						"JOINTS_0":9,
						"WEIGHTS_0":10
					},
					"indices":11,
					"material":1
				}
			]
		}
	],
	"skins":[
		{
			"inverseBindMatrices":12,
			"joints":[
				7,
				2,
				0,
				1,
				4,
				3,
				6,
				5,
				14,
				13,
				10,
				8,
				9,
				11,
				12
			],
			"name":"\u30a2\u30fc\u30de\u30c1\u30e5\u30a2"
		}
	],
	"accessors":[
		{
			"bufferView":0,
			"componentType":5126,
			"count":4714,
			"max":[
				3.5217158794403076,
				1.4268789291381836,
				2.737786293029785
			],
			"min":[
				-4.137577533721924,
				-0.9526160359382629,
				-2.737786293029785
			],
			"type":"VEC3"
		},
		{
			"bufferView":1,
			"componentType":5126,
			"count":4714,
			"type":"VEC3"
		},
		{
			"bufferView":2,
			"componentType":5126,
			"count":4714,
			"type":"VEC2"
		},
		{
			"bufferView":3,
			"componentType":5121,
			"count":4714,
			"type":"VEC4"
		},
		{
			"bufferView":4,
			"componentType":5126,
			"count":4714,
			"type":"VEC4"
		},
		{
			"bufferView":5,
			"componentType":5123,
			"count":25461,
			"type":"SCALAR"
		},
		{
			"bufferView":6,
			"componentType":5126,
			"count":4282,
			"max":[
				2.9445836544036865,
				0.3086741864681244,
				0.4914391040802002
			],
			"min":[
				2.556053638458252,
				-0.09566237777471542,
				-0.4972652196884155
			],
			"type":"VEC3"
		},
		{
			"bufferView":7,
			"componentType":5126,
			"count":4282,
			"type":"VEC3"
		},
		{
			"bufferView":8,
			"componentType":5126,
			"count":4282,
			"type":"VEC2"
		},
		{
			"bufferView":9,
			"componentType":5121,
			"count":4282,
			"type":"VEC4"
		},
		{
			"bufferView":10,
			"componentType":5126,
			"count":4282,
			"type":"VEC4"
		},
		{
			"bufferView":11,
			"componentType":5123,
			"count":23808,
			"type":"SCALAR"
		},
		{
			"bufferView":12,
			"componentType":5126,
			"count":15,
			"type":"MAT4"
		}
	],
	"bufferViews":[
		{
			"buffer":0,
			"byteLength":56568,
			"byteOffset":0,
			"target":34962
		},
		{
			"buffer":0,
			"byteLength":56568,
			"byteOffset":56568,
			"target":34962
		},
		{
			"buffer":0,
			"byteLength":37712,
			"byteOffset":113136,
			"target":34962
		},
		{
			"buffer":0,
			"byteLength":18856,
			"byteOffset":150848,
			"target":34962
		},
		{
			"buffer":0,
			"byteLength":75424,
			"byteOffset":169704,
			"target":34962
		},
		{
			"buffer":0,
			"byteLength":50922,
			"byteOffset":245128,
			"target":34963
		},
		{
			"buffer":0,
			"byteLength":51384,
			"byteOffset":296052,
			"target":34962
		},
		{
			"buffer":0,
			"byteLength":51384,
			"byteOffset":347436,
			"target":34962
		},
		{
			"buffer":0,
			"byteLength":34256,
			"byteOffset":398820,
			"target":34962
		},
		{
			"buffer":0,
			"byteLength":17128,
			"byteOffset":433076,
			"target":34962
		},
		{
			"buffer":0,
			"byteLength":68512,
			"byteOffset":450204,
			"target":34962
		},
		{
			"buffer":0,
			"byteLength":47616,
			"byteOffset":518716,
			"target":34963
		},
		{
			"buffer":0,
			"byteLength":960,
			"byteOffset":566332
		}
	],
	"buffers":[
		{
			"byteLength":567292,
			"uri":"data:application/octet-stream;base64,"
		}
	]
}
